<svg width="249" height="27" viewBox="0 0 249 27" fill="none" xmlns="http://www.w3.org/2000/svg">
<path d="M2.932 26C2.236 26 1.696 25.808 1.312 25.424C0.928 25.04 0.736 24.512 0.736 23.84V2.744C0.736 2.048 0.94 1.496 1.348 1.088C1.78 0.655999 2.344 0.439999 3.04 0.439999C3.76 0.439999 4.324 0.655999 4.732 1.088C5.164 1.496 5.38 2.048 5.38 2.744V22.184H15.496C16.936 22.184 17.656 22.82 17.656 24.092C17.656 25.364 16.936 26 15.496 26H2.932ZM33.8532 8.036C34.5492 8.036 35.1012 8.228 35.5092 8.612C35.9172 8.996 36.1212 9.512 36.1212 10.16V24.128C36.1212 24.752 35.9052 25.256 35.4732 25.64C35.0652 26.024 34.5252 26.216 33.8532 26.216C33.2052 26.216 32.6892 26.036 32.3052 25.676C31.9212 25.316 31.7292 24.824 31.7292 24.2V23.3C31.1772 24.26 30.4332 25.004 29.4972 25.532C28.5612 26.036 27.5052 26.288 26.3292 26.288C22.0092 26.288 19.8492 23.864 19.8492 19.016V10.16C19.8492 9.512 20.0532 8.996 20.4612 8.612C20.8692 8.228 21.4092 8.036 22.0812 8.036C22.7772 8.036 23.3292 8.228 23.7372 8.612C24.1452 8.996 24.3492 9.512 24.3492 10.16V19.052C24.3492 20.3 24.6012 21.224 25.1052 21.824C25.6092 22.424 26.4012 22.724 27.4812 22.724C28.7292 22.724 29.7252 22.316 30.4692 21.5C31.2372 20.66 31.6212 19.556 31.6212 18.188V10.16C31.6212 9.512 31.8252 8.996 32.2332 8.612C32.6412 8.228 33.1812 8.036 33.8532 8.036ZM48.6168 26.288C46.8648 26.288 45.3168 25.916 43.9728 25.172C42.6528 24.428 41.6328 23.372 40.9128 22.004C40.1928 20.636 39.8328 19.04 39.8328 17.216C39.8328 15.392 40.2048 13.784 40.9488 12.392C41.7168 10.976 42.7848 9.884 44.1528 9.116C45.5208 8.348 47.0928 7.964 48.8688 7.964C49.8048 7.964 50.7408 8.096 51.6768 8.36C52.6368 8.624 53.4768 8.984 54.1968 9.44C54.9648 9.944 55.3488 10.58 55.3488 11.348C55.3488 11.876 55.2168 12.308 54.9528 12.644C54.7128 12.956 54.3888 13.112 53.9808 13.112C53.7168 13.112 53.4408 13.052 53.1528 12.932C52.8648 12.812 52.5768 12.668 52.2888 12.5C51.7608 12.188 51.2568 11.948 50.7768 11.78C50.2968 11.588 49.7448 11.492 49.1208 11.492C47.6328 11.492 46.4808 11.984 45.6648 12.968C44.8728 13.928 44.4768 15.32 44.4768 17.144C44.4768 18.944 44.8728 20.336 45.6648 21.32C46.4808 22.28 47.6328 22.76 49.1208 22.76C49.7208 22.76 50.2488 22.676 50.7048 22.508C51.1848 22.316 51.7128 22.064 52.2888 21.752C52.6488 21.536 52.9608 21.38 53.2248 21.284C53.4888 21.164 53.7528 21.104 54.0168 21.104C54.4008 21.104 54.7248 21.272 54.9888 21.608C55.2528 21.944 55.3848 22.364 55.3848 22.868C55.3848 23.276 55.2888 23.636 55.0968 23.948C54.9288 24.236 54.6408 24.5 54.2328 24.74C53.4888 25.22 52.6248 25.604 51.6408 25.892C50.6568 26.156 49.6488 26.288 48.6168 26.288ZM66.015 7.964C68.463 7.964 70.275 8.576 71.451 9.8C72.651 11 73.251 12.836 73.251 15.308V24.092C73.251 24.74 73.059 25.256 72.675 25.64C72.291 26 71.763 26.18 71.091 26.18C70.467 26.18 69.951 25.988 69.543 25.604C69.159 25.22 68.967 24.716 68.967 24.092V23.3C68.559 24.236 67.911 24.968 67.023 25.496C66.159 26.024 65.151 26.288 63.999 26.288C62.823 26.288 61.755 26.048 60.795 25.568C59.835 25.088 59.079 24.428 58.527 23.588C57.975 22.748 57.699 21.812 57.699 20.78C57.699 19.484 58.023 18.464 58.671 17.72C59.343 16.976 60.423 16.436 61.911 16.1C63.399 15.764 65.451 15.596 68.067 15.596H68.967V14.768C68.967 13.592 68.715 12.74 68.211 12.212C67.707 11.66 66.891 11.384 65.763 11.384C65.067 11.384 64.359 11.492 63.639 11.708C62.919 11.9 62.067 12.188 61.083 12.572C60.459 12.884 60.003 13.04 59.715 13.04C59.283 13.04 58.923 12.884 58.635 12.572C58.371 12.26 58.239 11.852 58.239 11.348C58.239 10.94 58.335 10.592 58.527 10.304C58.743 9.992 59.091 9.704 59.571 9.44C60.411 8.984 61.407 8.624 62.559 8.36C63.735 8.096 64.887 7.964 66.015 7.964ZM64.899 23.048C66.099 23.048 67.071 22.652 67.815 21.86C68.583 21.044 68.967 20 68.967 18.728V17.972H68.319C66.711 17.972 65.463 18.044 64.575 18.188C63.687 18.332 63.051 18.584 62.667 18.944C62.283 19.304 62.091 19.796 62.091 20.42C62.091 21.188 62.355 21.824 62.883 22.328C63.435 22.808 64.107 23.048 64.899 23.048ZM84.1964 26.288C81.5804 26.288 79.4684 25.772 77.8604 24.74C77.0924 24.284 76.7084 23.636 76.7084 22.796C76.7084 22.316 76.8404 21.932 77.1044 21.644C77.3684 21.332 77.6924 21.176 78.0764 21.176C78.4844 21.176 79.0484 21.368 79.7684 21.752C80.5364 22.112 81.2324 22.388 81.8564 22.58C82.5044 22.772 83.3204 22.868 84.3044 22.868C85.3124 22.868 86.0924 22.7 86.6444 22.364C87.2204 22.028 87.5084 21.56 87.5084 20.96C87.5084 20.552 87.3884 20.228 87.1484 19.988C86.9324 19.748 86.5244 19.532 85.9244 19.34C85.3484 19.124 84.4604 18.884 83.2604 18.62C81.1244 18.188 79.5884 17.576 78.6524 16.784C77.7404 15.992 77.2844 14.9 77.2844 13.508C77.2844 12.452 77.5964 11.504 78.2204 10.664C78.8444 9.8 79.6964 9.14 80.7764 8.684C81.8804 8.204 83.1284 7.964 84.5204 7.964C85.5284 7.964 86.5004 8.096 87.4364 8.36C88.3724 8.6 89.2124 8.96 89.9564 9.44C90.7244 9.92 91.1084 10.556 91.1084 11.348C91.1084 11.828 90.9764 12.236 90.7124 12.572C90.4484 12.884 90.1244 13.04 89.7404 13.04C89.4764 13.04 89.2124 12.992 88.9484 12.896C88.7084 12.776 88.3964 12.608 88.0124 12.392C87.3164 12.032 86.7164 11.768 86.2124 11.6C85.7084 11.408 85.0844 11.312 84.3404 11.312C83.4524 11.312 82.7444 11.492 82.2164 11.852C81.7124 12.212 81.4604 12.704 81.4604 13.328C81.4604 13.928 81.7244 14.384 82.2524 14.696C82.7804 15.008 83.8004 15.32 85.3124 15.632C86.9204 15.968 88.1804 16.352 89.0924 16.784C90.0044 17.216 90.6524 17.756 91.0364 18.404C91.4444 19.052 91.6484 19.88 91.6484 20.888C91.6484 22.52 90.9644 23.828 89.5964 24.812C88.2524 25.796 86.4524 26.288 84.1964 26.288ZM116.806 26.324C114.358 26.324 112.21 25.796 110.362 24.74C108.538 23.684 107.134 22.172 106.15 20.204C105.166 18.236 104.674 15.932 104.674 13.292C104.674 10.652 105.166 8.36 106.15 6.416C107.134 4.448 108.538 2.936 110.362 1.88C112.21 0.823999 114.358 0.295998 116.806 0.295998C118.39 0.295998 119.878 0.535999 121.27 1.016C122.662 1.472 123.898 2.144 124.978 3.032C125.29 3.272 125.506 3.524 125.626 3.788C125.746 4.052 125.806 4.376 125.806 4.76C125.806 5.288 125.662 5.732 125.374 6.092C125.086 6.452 124.738 6.632 124.33 6.632C123.85 6.632 123.358 6.464 122.854 6.128C121.822 5.36 120.862 4.832 119.974 4.544C119.086 4.232 118.102 4.076 117.022 4.076C114.526 4.076 112.63 4.856 111.334 6.416C110.062 7.976 109.426 10.268 109.426 13.292C109.426 16.34 110.062 18.644 111.334 20.204C112.63 21.764 114.526 22.544 117.022 22.544C118.054 22.544 119.002 22.388 119.866 22.076C120.754 21.764 121.75 21.236 122.854 20.492C123.094 20.348 123.334 20.228 123.574 20.132C123.814 20.036 124.066 19.988 124.33 19.988C124.738 19.988 125.086 20.168 125.374 20.528C125.662 20.888 125.806 21.332 125.806 21.86C125.806 22.22 125.746 22.544 125.626 22.832C125.506 23.096 125.29 23.348 124.978 23.588C123.898 24.476 122.662 25.16 121.27 25.64C119.878 26.096 118.39 26.324 116.806 26.324ZM136.749 7.964C139.197 7.964 141.009 8.576 142.185 9.8C143.385 11 143.985 12.836 143.985 15.308V24.092C143.985 24.74 143.793 25.256 143.409 25.64C143.025 26 142.497 26.18 141.825 26.18C141.201 26.18 140.685 25.988 140.277 25.604C139.893 25.22 139.701 24.716 139.701 24.092V23.3C139.293 24.236 138.645 24.968 137.757 25.496C136.893 26.024 135.885 26.288 134.733 26.288C133.557 26.288 132.489 26.048 131.529 25.568C130.569 25.088 129.813 24.428 129.261 23.588C128.709 22.748 128.433 21.812 128.433 20.78C128.433 19.484 128.757 18.464 129.405 17.72C130.077 16.976 131.157 16.436 132.645 16.1C134.133 15.764 136.185 15.596 138.801 15.596H139.701V14.768C139.701 13.592 139.449 12.74 138.945 12.212C138.441 11.66 137.625 11.384 136.497 11.384C135.801 11.384 135.093 11.492 134.373 11.708C133.653 11.9 132.801 12.188 131.817 12.572C131.193 12.884 130.737 13.04 130.449 13.04C130.017 13.04 129.657 12.884 129.369 12.572C129.105 12.26 128.973 11.852 128.973 11.348C128.973 10.94 129.069 10.592 129.261 10.304C129.477 9.992 129.825 9.704 130.305 9.44C131.145 8.984 132.141 8.624 133.293 8.36C134.469 8.096 135.621 7.964 136.749 7.964ZM135.633 23.048C136.833 23.048 137.805 22.652 138.549 21.86C139.317 21.044 139.701 20 139.701 18.728V17.972H139.053C137.445 17.972 136.197 18.044 135.309 18.188C134.421 18.332 133.785 18.584 133.401 18.944C133.017 19.304 132.825 19.796 132.825 20.42C132.825 21.188 133.089 21.824 133.617 22.328C134.169 22.808 134.841 23.048 135.633 23.048ZM158.387 8.036C159.011 7.988 159.503 8.12 159.863 8.432C160.223 8.744 160.403 9.212 160.403 9.836C160.403 10.484 160.247 10.964 159.935 11.276C159.623 11.588 159.059 11.792 158.243 11.888L157.163 11.996C155.747 12.14 154.703 12.62 154.031 13.436C153.383 14.252 153.059 15.272 153.059 16.496V24.056C153.059 24.752 152.843 25.292 152.411 25.676C151.979 26.036 151.439 26.216 150.791 26.216C150.143 26.216 149.603 26.036 149.171 25.676C148.763 25.292 148.559 24.752 148.559 24.056V10.124C148.559 9.452 148.763 8.936 149.171 8.576C149.603 8.216 150.131 8.036 150.755 8.036C151.379 8.036 151.883 8.216 152.267 8.576C152.651 8.912 152.843 9.404 152.843 10.052V11.492C153.299 10.436 153.971 9.62 154.859 9.044C155.771 8.468 156.779 8.144 157.883 8.072L158.387 8.036ZM175.706 9.332C175.898 8.9 176.15 8.576 176.462 8.36C176.798 8.144 177.158 8.036 177.542 8.036C178.094 8.036 178.586 8.228 179.018 8.612C179.474 8.972 179.702 9.428 179.702 9.98C179.702 10.268 179.63 10.556 179.486 10.844L172.826 24.776C172.61 25.232 172.298 25.58 171.89 25.82C171.506 26.06 171.074 26.18 170.594 26.18C170.138 26.18 169.694 26.06 169.262 25.82C168.854 25.58 168.542 25.232 168.326 24.776L161.63 10.844C161.51 10.604 161.45 10.328 161.45 10.016C161.45 9.464 161.678 8.996 162.134 8.612C162.614 8.228 163.154 8.036 163.754 8.036C164.618 8.036 165.254 8.456 165.662 9.296L170.702 20.42L175.706 9.332ZM189.765 7.964C192.213 7.964 194.025 8.576 195.201 9.8C196.401 11 197.001 12.836 197.001 15.308V24.092C197.001 24.74 196.809 25.256 196.425 25.64C196.041 26 195.513 26.18 194.841 26.18C194.217 26.18 193.701 25.988 193.293 25.604C192.909 25.22 192.717 24.716 192.717 24.092V23.3C192.309 24.236 191.661 24.968 190.773 25.496C189.909 26.024 188.901 26.288 187.749 26.288C186.573 26.288 185.505 26.048 184.545 25.568C183.585 25.088 182.829 24.428 182.277 23.588C181.725 22.748 181.449 21.812 181.449 20.78C181.449 19.484 181.773 18.464 182.421 17.72C183.093 16.976 184.173 16.436 185.661 16.1C187.149 15.764 189.201 15.596 191.817 15.596H192.717V14.768C192.717 13.592 192.465 12.74 191.961 12.212C191.457 11.66 190.641 11.384 189.513 11.384C188.817 11.384 188.109 11.492 187.389 11.708C186.669 11.9 185.817 12.188 184.833 12.572C184.209 12.884 183.753 13.04 183.465 13.04C183.033 13.04 182.673 12.884 182.385 12.572C182.121 12.26 181.989 11.852 181.989 11.348C181.989 10.94 182.085 10.592 182.277 10.304C182.493 9.992 182.841 9.704 183.321 9.44C184.161 8.984 185.157 8.624 186.309 8.36C187.485 8.096 188.637 7.964 189.765 7.964ZM188.649 23.048C189.849 23.048 190.821 22.652 191.565 21.86C192.333 21.044 192.717 20 192.717 18.728V17.972H192.069C190.461 17.972 189.213 18.044 188.325 18.188C187.437 18.332 186.801 18.584 186.417 18.944C186.033 19.304 185.841 19.796 185.841 20.42C185.841 21.188 186.105 21.824 186.633 22.328C187.185 22.808 187.857 23.048 188.649 23.048ZM203.806 26.216C203.158 26.216 202.618 26.036 202.186 25.676C201.778 25.292 201.574 24.752 201.574 24.056V2.564C201.574 1.868 201.778 1.34 202.186 0.979998C202.618 0.619998 203.158 0.439999 203.806 0.439999C204.454 0.439999 204.994 0.619998 205.426 0.979998C205.858 1.34 206.074 1.868 206.074 2.564V24.056C206.074 24.752 205.858 25.292 205.426 25.676C204.994 26.036 204.454 26.216 203.806 26.216ZM221.011 7.964C225.139 7.964 227.203 10.376 227.203 15.2V24.056C227.203 24.728 226.999 25.256 226.591 25.64C226.207 26.024 225.667 26.216 224.971 26.216C224.275 26.216 223.723 26.024 223.315 25.64C222.907 25.256 222.703 24.728 222.703 24.056V15.2C222.703 13.928 222.439 13.004 221.911 12.428C221.407 11.828 220.603 11.528 219.499 11.528C218.203 11.528 217.159 11.936 216.367 12.752C215.599 13.568 215.215 14.66 215.215 16.028V24.056C215.215 24.728 215.011 25.256 214.603 25.64C214.195 26.024 213.643 26.216 212.947 26.216C212.251 26.216 211.699 26.024 211.291 25.64C210.907 25.256 210.715 24.728 210.715 24.056V2.528C210.715 1.904 210.919 1.4 211.327 1.016C211.759 0.631999 212.311 0.439999 212.983 0.439999C213.655 0.439999 214.195 0.619998 214.603 0.979998C215.011 1.34 215.215 1.832 215.215 2.456V10.844C215.815 9.908 216.607 9.2 217.591 8.72C218.599 8.216 219.739 7.964 221.011 7.964ZM239.802 26.288C238.002 26.288 236.418 25.916 235.05 25.172C233.706 24.428 232.662 23.36 231.918 21.968C231.174 20.576 230.802 18.956 230.802 17.108C230.802 15.26 231.174 13.652 231.918 12.284C232.662 10.892 233.706 9.824 235.05 9.08C236.418 8.336 238.002 7.964 239.802 7.964C241.602 7.964 243.174 8.336 244.518 9.08C245.886 9.824 246.93 10.892 247.65 12.284C248.394 13.652 248.766 15.26 248.766 17.108C248.766 18.956 248.394 20.576 247.65 21.968C246.93 23.36 245.886 24.428 244.518 25.172C243.174 25.916 241.602 26.288 239.802 26.288ZM239.766 22.796C241.23 22.796 242.346 22.316 243.114 21.356C243.882 20.396 244.266 18.98 244.266 17.108C244.266 15.26 243.882 13.856 243.114 12.896C242.346 11.912 241.242 11.42 239.802 11.42C238.362 11.42 237.246 11.912 236.454 12.896C235.686 13.856 235.302 15.26 235.302 17.108C235.302 18.98 235.686 20.396 236.454 21.356C237.222 22.316 238.326 22.796 239.766 22.796Z" fill="white"/>
</svg>
