<svg width="24" height="24" viewBox="0 0 24 24" fill="none" xmlns="http://www.w3.org/2000/svg">
<path d="M11.8612 4.32001C7.57071 4.32001 4.07999 7.78967 4.07999 12.0544C4.07999 16.3191 7.57071 19.7888 11.8612 19.7888C16.1518 19.7888 19.6425 16.3191 19.6425 12.0544C19.6425 11.5342 19.5905 11.014 19.4878 10.5082L19.3735 9.94501H15.0119L17.8742 7.08252C17.6452 6.92212 15.6801 4.32001 11.8612 4.32001ZM14.8528 8.11523C14.0019 7.4848 12.9445 7.13251 11.8612 7.13251C9.14011 7.13251 6.89249 9.34113 6.89249 12.0544C6.89249 14.7643 9.13718 16.9763 11.8612 16.9763C13.9831 16.9763 15.8643 15.6257 16.5486 13.6956L16.8813 12.7575H12.5644V11.3513H18.1976C18.2232 11.5842 18.2362 11.8193 18.2362 12.0544C18.2362 15.5436 15.3763 18.3825 11.8612 18.3825C8.34616 18.3825 5.48624 15.5436 5.48624 12.0544C5.48624 8.56512 8.34616 5.72626 11.8612 5.72626C13.3173 5.72626 14.7386 6.22449 15.8568 7.11127L14.8528 8.11523ZM14.7093 14.1638C14.0446 15.0234 12.9835 15.57 11.8612 15.57C9.89688 15.57 8.29874 13.9929 8.29874 12.0544C8.29874 10.1158 9.89688 8.53876 11.8612 8.53876C13.6985 8.53876 14.586 9.81409 14.7679 9.94501H11.1581V14.1638H14.7093Z" fill="#3355BB"/>
</svg>
