<svg width="100" height="100" viewBox="0 0 100 100" fill="none" xmlns="http://www.w3.org/2000/svg">
<path d="M50 96.127C75.4752 96.127 96.127 75.4752 96.127 50C96.127 24.5248 75.4752 3.87305 50 3.87305C24.5248 3.87305 3.87305 24.5248 3.87305 50C3.87305 75.4752 24.5248 96.127 50 96.127Z" fill="#3355BB"/>
<path d="M50 100C22.4322 100 0 77.5717 0 50C0 22.4322 22.4322 0 50 0C77.5717 0 100 22.4322 100 50C100 77.5717 77.5717 100 50 100ZM50 7.7459C26.7002 7.7459 7.7459 26.7002 7.7459 50C7.7459 73.2998 26.7002 92.2541 50 92.2541C73.2998 92.2541 92.2541 73.2959 92.2541 50C92.2541 26.7002 73.2998 7.7459 50 7.7459Z" fill="#3355BB"/>
<path d="M57.9526 28.1465C59.4554 29.657 59.4554 32.0969 57.9526 33.6074L41.3376 50.2225L57.9526 66.8375C59.3431 68.4603 59.1532 70.908 57.5306 72.2984C56.0821 73.5416 53.9403 73.5416 52.4919 72.2984L33.1271 52.9336C31.6243 51.423 31.6243 48.9832 33.127 47.4727L52.4919 28.1078C54.014 26.6166 56.4538 26.6322 57.9526 28.1465Z" fill="white"/>
</svg>
