<svg width="100" height="100" viewBox="0 0 100 100" fill="none" xmlns="http://www.w3.org/2000/svg">
<path d="M50 96.127C75.4752 96.127 96.127 75.4752 96.127 50C96.127 24.5248 75.4752 3.87305 50 3.87305C24.5248 3.87305 3.87305 24.5248 3.87305 50C3.87305 75.4752 24.5248 96.127 50 96.127Z" fill="#3355BB"/>
<path d="M50 100C22.4322 100 0 77.5717 0 50C0 22.4322 22.4322 0 50 0C77.5717 0 100 22.4322 100 50C100 77.5717 77.5717 100 50 100ZM50 7.7459C26.7002 7.7459 7.7459 26.7002 7.7459 50C7.7459 73.2998 26.7002 92.2541 50 92.2541C73.2998 92.2541 92.2541 73.2959 92.2541 50C92.2541 26.7002 73.2998 7.7459 50 7.7459Z" fill="#3355BB"/>
<path d="M41.7329 70.3229C40.2302 68.8123 40.2302 66.3725 41.7329 64.862L58.3479 48.2469L41.7329 31.6319C40.3425 30.009 40.5323 27.5614 42.155 26.171C43.6034 24.9278 45.7452 24.9278 47.1937 26.171L66.5585 45.5358C68.0612 47.0463 68.0612 49.4862 66.5585 50.9967L47.1936 70.3616C45.6716 71.8528 43.2317 71.8372 41.7329 70.3229Z" fill="white"/>
</svg>
