<svg width="600" height="500" viewBox="0 0 600 500" fill="none" xmlns="http://www.w3.org/2000/svg">
<rect width="600" height="500" fill="#2299FF"/>
<rect y="340" width="600" height="160" fill="black" fill-opacity="0.75"/>
<path d="M117.44 452.576C115.584 452.576 114.08 452.032 112.928 450.944C111.84 449.792 111.296 448.256 111.296 446.336V390.176C111.296 388.32 111.808 386.88 112.832 385.856C113.92 384.832 115.392 384.32 117.248 384.32H140.864C148.096 384.32 153.728 386.144 157.76 389.792C161.792 393.376 163.808 398.432 163.808 404.96C163.808 411.488 161.792 416.576 157.76 420.224C153.728 423.872 148.096 425.696 140.864 425.696H123.68V446.336C123.68 448.256 123.104 449.792 121.952 450.944C120.864 452.032 119.36 452.576 117.44 452.576ZM139.328 416.192C147.84 416.192 152.096 412.48 152.096 405.056C152.096 397.632 147.84 393.92 139.328 393.92H123.68V416.192H139.328ZM193.336 452.768C188.536 452.768 184.312 451.776 180.664 449.792C177.08 447.808 174.296 444.96 172.312 441.248C170.328 437.536 169.336 433.216 169.336 428.288C169.336 423.36 170.328 419.072 172.312 415.424C174.296 411.712 177.08 408.864 180.664 406.88C184.312 404.896 188.536 403.904 193.336 403.904C198.136 403.904 202.328 404.896 205.912 406.88C209.56 408.864 212.344 411.712 214.264 415.424C216.248 419.072 217.24 423.36 217.24 428.288C217.24 433.216 216.248 437.536 214.264 441.248C212.344 444.96 209.56 447.808 205.912 449.792C202.328 451.776 198.136 452.768 193.336 452.768ZM193.24 443.456C197.144 443.456 200.12 442.176 202.168 439.616C204.216 437.056 205.24 433.28 205.24 428.288C205.24 423.36 204.216 419.616 202.168 417.056C200.12 414.432 197.176 413.12 193.336 413.12C189.496 413.12 186.52 414.432 184.408 417.056C182.36 419.616 181.336 423.36 181.336 428.288C181.336 433.28 182.36 437.056 184.408 439.616C186.456 442.176 189.4 443.456 193.24 443.456ZM253.354 404.096C255.018 403.968 256.33 404.32 257.29 405.152C258.25 405.984 258.73 407.232 258.73 408.896C258.73 410.624 258.314 411.904 257.482 412.736C256.65 413.568 255.146 414.112 252.97 414.368L250.09 414.656C246.314 415.04 243.53 416.32 241.738 418.496C240.01 420.672 239.146 423.392 239.146 426.656V446.816C239.146 448.672 238.57 450.112 237.418 451.136C236.266 452.096 234.826 452.576 233.098 452.576C231.37 452.576 229.93 452.096 228.778 451.136C227.69 450.112 227.146 448.672 227.146 446.816V409.664C227.146 407.872 227.69 406.496 228.778 405.536C229.93 404.576 231.338 404.096 233.002 404.096C234.666 404.096 236.01 404.576 237.034 405.536C238.058 406.432 238.57 407.744 238.57 409.472V413.312C239.786 410.496 241.578 408.32 243.946 406.784C246.378 405.248 249.066 404.384 252.01 404.192L253.354 404.096ZM292.593 443.648C295.793 443.84 297.393 445.28 297.393 447.968C297.393 449.504 296.753 450.688 295.473 451.52C294.257 452.288 292.497 452.608 290.193 452.48L287.601 452.288C276.849 451.52 271.473 445.76 271.473 435.008V414.08H266.673C264.945 414.08 263.601 413.696 262.641 412.928C261.745 412.16 261.297 411.04 261.297 409.568C261.297 408.096 261.745 406.976 262.641 406.208C263.601 405.44 264.945 405.056 266.673 405.056H271.473V396.224C271.473 394.496 272.017 393.12 273.105 392.096C274.193 391.072 275.665 390.56 277.521 390.56C279.313 390.56 280.753 391.072 281.841 392.096C282.929 393.12 283.473 394.496 283.473 396.224V405.056H291.633C293.361 405.056 294.673 405.44 295.569 406.208C296.529 406.976 297.009 408.096 297.009 409.568C297.009 411.04 296.529 412.16 295.569 412.928C294.673 413.696 293.361 414.08 291.633 414.08H283.473V435.872C283.473 440.608 285.649 443.136 290.001 443.456L292.593 443.648ZM327.827 393.248C324.883 393.44 322.739 394.336 321.395 395.936C320.051 397.536 319.379 399.84 319.379 402.848V405.056H327.539C331.123 405.056 332.915 406.56 332.915 409.568C332.915 412.576 331.123 414.08 327.539 414.08H319.379V446.816C319.379 448.672 318.803 450.08 317.651 451.04C316.563 452 315.155 452.48 313.427 452.48C311.699 452.48 310.259 452 309.107 451.04C307.955 450.08 307.379 448.672 307.379 446.816V414.08H302.579C298.995 414.08 297.203 412.576 297.203 409.568C297.203 406.56 298.995 405.056 302.579 405.056H307.379V404.384C307.379 398.368 308.947 393.664 312.083 390.272C315.283 386.816 319.763 384.864 325.523 384.416L328.019 384.224C330.579 384.032 332.371 384.32 333.395 385.088C334.483 385.792 335.027 386.912 335.027 388.448C335.027 391.2 333.459 392.736 330.323 393.056L327.827 393.248ZM359.461 452.768C354.661 452.768 350.437 451.776 346.789 449.792C343.205 447.808 340.421 444.96 338.437 441.248C336.453 437.536 335.461 433.216 335.461 428.288C335.461 423.36 336.453 419.072 338.437 415.424C340.421 411.712 343.205 408.864 346.789 406.88C350.437 404.896 354.661 403.904 359.461 403.904C364.261 403.904 368.453 404.896 372.037 406.88C375.685 408.864 378.469 411.712 380.389 415.424C382.373 419.072 383.365 423.36 383.365 428.288C383.365 433.216 382.373 437.536 380.389 441.248C378.469 444.96 375.685 447.808 372.037 449.792C368.453 451.776 364.261 452.768 359.461 452.768ZM359.365 443.456C363.269 443.456 366.245 442.176 368.293 439.616C370.341 437.056 371.365 433.28 371.365 428.288C371.365 423.36 370.341 419.616 368.293 417.056C366.245 414.432 363.301 413.12 359.461 413.12C355.621 413.12 352.645 414.432 350.533 417.056C348.485 419.616 347.461 423.36 347.461 428.288C347.461 433.28 348.485 437.056 350.533 439.616C352.581 442.176 355.525 443.456 359.365 443.456ZM361.861 398.624C361.157 399.136 360.453 399.392 359.749 399.392C358.853 399.392 358.085 399.104 357.445 398.528C356.869 397.888 356.581 397.152 356.581 396.32C356.581 395.616 356.837 394.912 357.349 394.208L366.661 381.824C368.133 379.904 369.829 378.944 371.749 378.944C373.157 378.944 374.341 379.456 375.301 380.48C376.325 381.44 376.837 382.592 376.837 383.936C376.837 385.728 375.973 387.264 374.245 388.544L361.861 398.624ZM399.223 452.576C397.495 452.576 396.055 452.096 394.903 451.136C393.815 450.112 393.271 448.672 393.271 446.816V389.504C393.271 387.648 393.815 386.24 394.903 385.28C396.055 384.32 397.495 383.84 399.223 383.84C400.951 383.84 402.391 384.32 403.543 385.28C404.695 386.24 405.271 387.648 405.271 389.504V446.816C405.271 448.672 404.695 450.112 403.543 451.136C402.391 452.096 400.951 452.576 399.223 452.576ZM423.598 452.576C421.87 452.576 420.43 452.096 419.278 451.136C418.19 450.112 417.646 448.672 417.646 446.816V409.76C417.646 407.904 418.19 406.496 419.278 405.536C420.43 404.576 421.87 404.096 423.598 404.096C425.326 404.096 426.766 404.576 427.918 405.536C429.07 406.496 429.646 407.904 429.646 409.76V446.816C429.646 448.672 429.07 450.112 427.918 451.136C426.766 452.096 425.326 452.576 423.598 452.576ZM423.598 395.552C421.422 395.552 419.694 394.976 418.414 393.824C417.134 392.608 416.494 391.04 416.494 389.12C416.494 387.2 417.134 385.664 418.414 384.512C419.694 383.36 421.422 382.784 423.598 382.784C425.71 382.784 427.406 383.36 428.686 384.512C430.03 385.664 430.702 387.2 430.702 389.12C430.702 391.04 430.062 392.608 428.782 393.824C427.502 394.976 425.774 395.552 423.598 395.552ZM463.429 452.768C458.629 452.768 454.405 451.776 450.757 449.792C447.173 447.808 444.389 444.96 442.405 441.248C440.421 437.536 439.429 433.216 439.429 428.288C439.429 423.36 440.421 419.072 442.405 415.424C444.389 411.712 447.173 408.864 450.757 406.88C454.405 404.896 458.629 403.904 463.429 403.904C468.229 403.904 472.421 404.896 476.005 406.88C479.653 408.864 482.437 411.712 484.357 415.424C486.341 419.072 487.333 423.36 487.333 428.288C487.333 433.216 486.341 437.536 484.357 441.248C482.437 444.96 479.653 447.808 476.005 449.792C472.421 451.776 468.229 452.768 463.429 452.768ZM463.333 443.456C467.237 443.456 470.213 442.176 472.261 439.616C474.309 437.056 475.333 433.28 475.333 428.288C475.333 423.36 474.309 419.616 472.261 417.056C470.213 414.432 467.269 413.12 463.429 413.12C459.589 413.12 456.613 414.432 454.501 417.056C452.453 419.616 451.429 423.36 451.429 428.288C451.429 433.28 452.453 437.056 454.501 439.616C456.549 442.176 459.493 443.456 463.333 443.456Z" fill="#FAFBFC"/>
</svg>
