<svg width="600" height="500" viewBox="0 0 600 500" fill="none" xmlns="http://www.w3.org/2000/svg">
<rect width="600" height="500" fill="#3355BB"/>
<rect y="340" width="600" height="160" fill="black" fill-opacity="0.75"/>
<path d="M123.44 452.576C121.584 452.576 120.08 452.032 118.928 450.944C117.84 449.792 117.296 448.256 117.296 446.336V390.176C117.296 388.32 117.808 386.88 118.832 385.856C119.92 384.832 121.392 384.32 123.248 384.32H146.864C154.096 384.32 159.728 386.144 163.76 389.792C167.792 393.376 169.808 398.432 169.808 404.96C169.808 411.488 167.792 416.576 163.76 420.224C159.728 423.872 154.096 425.696 146.864 425.696H129.68V446.336C129.68 448.256 129.104 449.792 127.952 450.944C126.864 452.032 125.36 452.576 123.44 452.576ZM145.328 416.192C153.84 416.192 158.096 412.48 158.096 405.056C158.096 397.632 153.84 393.92 145.328 393.92H129.68V416.192H145.328ZM204.886 404.096C206.55 403.968 207.862 404.32 208.822 405.152C209.782 405.984 210.262 407.232 210.262 408.896C210.262 410.624 209.846 411.904 209.014 412.736C208.182 413.568 206.678 414.112 204.502 414.368L201.622 414.656C197.846 415.04 195.062 416.32 193.27 418.496C191.542 420.672 190.678 423.392 190.678 426.656V446.816C190.678 448.672 190.102 450.112 188.95 451.136C187.798 452.096 186.358 452.576 184.63 452.576C182.902 452.576 181.462 452.096 180.31 451.136C179.222 450.112 178.678 448.672 178.678 446.816V409.664C178.678 407.872 179.222 406.496 180.31 405.536C181.462 404.576 182.87 404.096 184.534 404.096C186.198 404.096 187.542 404.576 188.566 405.536C189.59 406.432 190.102 407.744 190.102 409.472V413.312C191.318 410.496 193.11 408.32 195.478 406.784C197.91 405.248 200.598 404.384 203.542 404.192L204.886 404.096ZM235.898 452.768C231.098 452.768 226.874 451.776 223.226 449.792C219.642 447.808 216.858 444.96 214.874 441.248C212.89 437.536 211.898 433.216 211.898 428.288C211.898 423.36 212.89 419.072 214.874 415.424C216.858 411.712 219.642 408.864 223.226 406.88C226.874 404.896 231.098 403.904 235.898 403.904C240.698 403.904 244.89 404.896 248.474 406.88C252.122 408.864 254.906 411.712 256.826 415.424C258.81 419.072 259.802 423.36 259.802 428.288C259.802 433.216 258.81 437.536 256.826 441.248C254.906 444.96 252.122 447.808 248.474 449.792C244.89 451.776 240.698 452.768 235.898 452.768ZM235.802 443.456C239.706 443.456 242.682 442.176 244.73 439.616C246.778 437.056 247.802 433.28 247.802 428.288C247.802 423.36 246.778 419.616 244.73 417.056C242.682 414.432 239.738 413.12 235.898 413.12C232.058 413.12 229.082 414.432 226.97 417.056C224.922 419.616 223.898 423.36 223.898 428.288C223.898 433.28 224.922 437.056 226.97 439.616C229.018 442.176 231.962 443.456 235.802 443.456ZM262.989 469.472C260.685 469.6 258.925 469.28 257.709 468.512C256.429 467.744 255.789 466.56 255.789 464.96C255.789 462.336 257.389 460.896 260.589 460.64L263.181 460.448C265.357 460.32 266.989 459.648 268.077 458.432C269.165 457.216 269.709 455.36 269.709 452.864V409.76C269.709 407.904 270.253 406.496 271.341 405.536C272.493 404.576 273.933 404.096 275.661 404.096C277.389 404.096 278.829 404.576 279.981 405.536C281.133 406.496 281.709 407.904 281.709 409.76V452C281.709 462.752 276.333 468.512 265.581 469.28L262.989 469.472ZM275.565 395.552C273.389 395.552 271.661 394.976 270.381 393.824C269.101 392.608 268.461 391.04 268.461 389.12C268.461 387.2 269.101 385.664 270.381 384.512C271.661 383.36 273.389 382.784 275.565 382.784C277.677 382.784 279.373 383.36 280.653 384.512C281.997 385.664 282.669 387.2 282.669 389.12C282.669 391.04 282.029 392.608 280.749 393.824C279.469 394.976 277.741 395.552 275.565 395.552ZM331.236 439.136C332.324 439.136 333.188 439.552 333.828 440.384C334.532 441.216 334.884 442.336 334.884 443.744C334.884 445.728 333.7 447.392 331.332 448.736C329.156 449.952 326.692 450.944 323.94 451.712C321.188 452.416 318.564 452.768 316.068 452.768C308.516 452.768 302.532 450.592 298.116 446.24C293.7 441.888 291.492 435.936 291.492 428.384C291.492 423.584 292.452 419.328 294.372 415.616C296.292 411.904 298.98 409.024 302.436 406.976C305.956 404.928 309.924 403.904 314.34 403.904C318.564 403.904 322.244 404.832 325.38 406.688C328.516 408.544 330.948 411.168 332.676 414.56C334.404 417.952 335.268 421.952 335.268 426.56C335.268 429.312 334.052 430.688 331.62 430.688H303.3C303.684 435.104 304.932 438.368 307.044 440.48C309.156 442.528 312.228 443.552 316.26 443.552C318.308 443.552 320.1 443.296 321.636 442.784C323.236 442.272 325.028 441.568 327.012 440.672C328.932 439.648 330.34 439.136 331.236 439.136ZM314.628 412.352C311.364 412.352 308.74 413.376 306.756 415.424C304.836 417.472 303.684 420.416 303.3 424.256H324.996C324.868 420.352 323.908 417.408 322.116 415.424C320.324 413.376 317.828 412.352 314.628 412.352ZM368.812 443.648C372.012 443.84 373.612 445.28 373.612 447.968C373.612 449.504 372.972 450.688 371.692 451.52C370.476 452.288 368.716 452.608 366.411 452.48L363.82 452.288C353.068 451.52 347.692 445.76 347.692 435.008V414.08H342.892C341.164 414.08 339.82 413.696 338.86 412.928C337.963 412.16 337.515 411.04 337.515 409.568C337.515 408.096 337.963 406.976 338.86 406.208C339.82 405.44 341.164 405.056 342.892 405.056H347.692V396.224C347.692 394.496 348.236 393.12 349.324 392.096C350.412 391.072 351.884 390.56 353.74 390.56C355.532 390.56 356.972 391.072 358.06 392.096C359.148 393.12 359.692 394.496 359.692 396.224V405.056H367.852C369.58 405.056 370.892 405.44 371.788 406.208C372.748 406.976 373.228 408.096 373.228 409.568C373.228 411.04 372.748 412.16 371.788 412.928C370.892 413.696 369.58 414.08 367.852 414.08H359.692V435.872C359.692 440.608 361.868 443.136 366.22 443.456L368.812 443.648ZM401.273 452.768C396.473 452.768 392.249 451.776 388.601 449.792C385.017 447.808 382.233 444.96 380.249 441.248C378.265 437.536 377.273 433.216 377.273 428.288C377.273 423.36 378.265 419.072 380.249 415.424C382.233 411.712 385.017 408.864 388.601 406.88C392.249 404.896 396.473 403.904 401.273 403.904C406.073 403.904 410.265 404.896 413.849 406.88C417.497 408.864 420.281 411.712 422.201 415.424C424.185 419.072 425.177 423.36 425.177 428.288C425.177 433.216 424.185 437.536 422.201 441.248C420.281 444.96 417.497 447.808 413.849 449.792C410.265 451.776 406.073 452.768 401.273 452.768ZM401.177 443.456C405.081 443.456 408.057 442.176 410.105 439.616C412.153 437.056 413.177 433.28 413.177 428.288C413.177 423.36 412.153 419.616 410.105 417.056C408.057 414.432 405.113 413.12 401.273 413.12C397.433 413.12 394.457 414.432 392.345 417.056C390.297 419.616 389.273 423.36 389.273 428.288C389.273 433.28 390.297 437.056 392.345 439.616C394.393 442.176 397.337 443.456 401.177 443.456ZM452.076 452.768C445.1 452.768 439.468 451.392 435.18 448.64C433.132 447.424 432.108 445.696 432.108 443.456C432.108 442.176 432.46 441.152 433.164 440.384C433.868 439.552 434.732 439.136 435.756 439.136C436.844 439.136 438.348 439.648 440.268 440.672C442.316 441.632 444.172 442.368 445.836 442.88C447.564 443.392 449.74 443.648 452.364 443.648C455.052 443.648 457.132 443.2 458.604 442.304C460.14 441.408 460.908 440.16 460.908 438.56C460.908 437.472 460.588 436.608 459.948 435.968C459.372 435.328 458.284 434.752 456.684 434.24C455.148 433.664 452.78 433.024 449.58 432.32C443.884 431.168 439.788 429.536 437.292 427.424C434.86 425.312 433.644 422.4 433.644 418.688C433.644 415.872 434.476 413.344 436.14 411.104C437.804 408.8 440.076 407.04 442.956 405.824C445.9 404.544 449.228 403.904 452.94 403.904C455.628 403.904 458.22 404.256 460.716 404.96C463.212 405.6 465.452 406.56 467.436 407.84C469.484 409.12 470.508 410.816 470.508 412.928C470.508 414.208 470.156 415.296 469.452 416.192C468.748 417.024 467.884 417.44 466.86 417.44C466.156 417.44 465.452 417.312 464.748 417.056C464.108 416.736 463.276 416.288 462.252 415.712C460.396 414.752 458.796 414.048 457.452 413.6C456.108 413.088 454.444 412.832 452.46 412.832C450.092 412.832 448.204 413.312 446.796 414.272C445.452 415.232 444.78 416.544 444.78 418.208C444.78 419.808 445.484 421.024 446.892 421.856C448.3 422.688 451.02 423.52 455.052 424.352C459.34 425.248 462.7 426.272 465.132 427.424C467.564 428.576 469.292 430.016 470.316 431.744C471.404 433.472 471.948 435.68 471.948 438.368C471.948 442.72 470.124 446.208 466.476 448.832C462.892 451.456 458.092 452.768 452.076 452.768Z" fill="#FAFBFC"/>
</svg>
