<svg width="100" height="100" viewBox="0 0 100 100" fill="none" xmlns="http://www.w3.org/2000/svg">
<path d="M50 96.127C75.4752 96.127 96.127 75.4752 96.127 50C96.127 24.5248 75.4752 3.87305 50 3.87305C24.5248 3.87305 3.87305 24.5248 3.87305 50C3.87305 75.4752 24.5248 96.127 50 96.127Z" fill="#3355BB"/>
<path d="M50 100C22.4322 100 0 77.5717 0 50C0 22.4322 22.4322 0 50 0C77.5717 0 100 22.4322 100 50C100 77.5717 77.5717 100 50 100ZM50 7.7459C26.7002 7.7459 7.7459 26.7002 7.7459 50C7.7459 73.2998 26.7002 92.2541 50 92.2541C73.2998 92.2541 92.2541 73.2959 92.2541 50C92.2541 26.7002 73.2998 7.7459 50 7.7459Z" fill="#3355BB"/>
<path d="M72.1146 60.7668C70.6041 62.2695 68.1643 62.2695 66.6537 60.7668L50.0387 44.1518L33.4236 60.7668C31.8008 62.1572 29.3531 61.9674 27.9627 60.3447C26.7195 58.8963 26.7195 56.7545 27.9627 55.3061L47.3275 35.9412C48.8381 34.4385 51.2779 34.4385 52.7885 35.9412L72.1533 55.3061C73.6445 56.8281 73.6289 59.268 72.1146 60.7668Z" fill="white"/>
</svg>
