<svg width="24" height="24" viewBox="0 0 24 24" fill="none" xmlns="http://www.w3.org/2000/svg">
<g clip-path="url(#clip0)">
<path d="M5.80463 22.2874C7.65894 23.4033 9.77911 23.9914 11.9575 23.9914C18.5587 23.9914 24 18.6048 24 11.9956C24 5.3941 18.5663 0 11.9575 0C5.36884 0 0.00860597 5.38129 0.00860597 11.9956C0.00860597 14.2031 0.596924 16.3394 1.71259 18.1952L0 24L5.80463 22.2874ZM1.41449 11.9956C1.41449 6.15637 6.1441 1.4057 11.9575 1.4057C17.8226 1.4057 22.5943 6.15637 22.5943 11.9956C22.5943 17.835 17.8226 22.5855 11.9575 22.5855C9.93933 22.5855 7.97809 22.0139 6.28638 20.9321L6.01611 20.7594L2.07916 21.921L3.2406 17.9839L3.06793 17.7138C1.98615 16.0217 1.41449 14.0446 1.41449 11.9956Z" fill="#3355BB"/>
<path d="M5.84198 9.78536C6.07416 11.0047 6.76337 13.3499 8.77002 15.3565C10.7767 17.3632 13.1219 18.0526 14.3414 18.2847C15.7377 18.5506 17.7869 18.5907 18.7883 17.5893L19.3466 17.031C19.6284 16.7492 19.7836 16.3744 19.7836 15.9758C19.7836 15.5772 19.6284 15.2025 19.3466 14.9207L17.114 12.6881C16.832 12.4061 16.4573 12.2511 16.0587 12.2511C15.6601 12.2511 15.2855 12.4061 15.0035 12.6881L14.4454 13.2462C14.1044 13.5872 13.4608 13.5886 13.1173 13.2504L10.8904 10.9301C10.8871 10.9267 10.8838 10.9232 10.8803 10.9199C10.5388 10.5784 10.5388 10.0227 10.8803 9.68117L11.4384 9.12306C12.0218 8.53969 12.0218 7.59578 11.4384 7.01259L9.20581 4.77998C8.62409 4.19826 7.67743 4.19826 7.09552 4.77998L6.53742 5.33827V5.33809C5.73816 6.13753 5.47175 7.84151 5.84198 9.78536ZM7.5315 6.33235C8.11744 5.75978 8.08613 5.74879 8.15076 5.74879C8.17292 5.74879 8.19507 5.75722 8.21192 5.77406C10.5645 8.13924 10.47 8.00026 10.47 8.06801C10.47 8.09163 10.4614 8.11232 10.4447 8.12917L9.88642 8.68727C8.99744 9.57625 8.99396 11.0153 9.88074 11.9083L12.109 14.2301C12.1124 14.2334 12.1157 14.2368 12.1192 14.2403C13.008 15.1291 14.5477 15.132 15.4395 14.2403L15.9976 13.6822C16.0313 13.6485 16.0862 13.6485 16.1199 13.6822C18.4724 16.0472 18.3779 15.9082 18.3779 15.976C18.3779 15.9998 18.3693 16.0203 18.3527 16.0371L17.7944 16.5952C17.4119 16.9777 16.1935 17.2066 14.6043 16.9039C13.5438 16.7018 11.5045 16.103 9.7641 14.3626C8.02369 12.6222 7.42493 10.583 7.22297 9.52242C6.92011 7.93324 7.14899 6.71468 7.5315 6.33235Z" fill="#3355BB"/>
</g>
<defs>
<clipPath id="clip0">
<rect width="24" height="24" fill="white"/>
</clipPath>
</defs>
</svg>
