<?xml version="1.0" encoding="utf-8"?>
<!-- Generator: Adobe Illustrator 23.0.0, SVG Export Plug-In . SVG Version: 6.00 Build 0)  -->
<svg version="1.1" id="Capa_1" xmlns="http://www.w3.org/2000/svg" xmlns:xlink="http://www.w3.org/1999/xlink" x="0px" y="0px"
	 viewBox="0 0 400.8 480.8" style="enable-background:new 0 0 400.8 480.8;" xml:space="preserve">
<style type="text/css">
	.st0{fill:#210B20;}
</style>
<title>lampada-apagada</title>
<path class="st0" d="M283.1,318.4c25.9-23.4,40.7-56.7,40.8-91.6c0-68-55.6-123.6-123.6-123.6S76.7,158.8,76.7,226.8
	c0.1,35.5,15.4,69.3,42,92.8c19.6,19.6,17.6,61.2,17.6,61.6c0.1,2,0.8,4,2,5.6c1.5,1.5,3.5,2.4,5.6,2.4h113.2c2.1,0,4.1-0.9,5.6-2.4
	c1.4-1.5,2.1-3.5,2-5.6c0-0.4-2-42,17.6-61.6C282.7,319.2,283.1,318.8,283.1,318.4z M271.9,308.4c-0.7,0.5-1.3,1.2-1.6,2
	c-17.6,18.8-20.4,49.6-20.8,64h-98c-0.4-14.8-3.6-46.8-22.4-65.6C84,269.5,79.3,201,118.7,155.9s107.8-49.8,152.9-10.4
	c23.6,20.6,37.1,50.4,37.1,81.7C308.7,258.3,295.3,287.9,271.9,308.4L271.9,308.4z"/>
<path class="st0" d="M200.3,135.2c-4.2,0-7.6,3.4-7.6,7.6c0,4.2,3.4,7.6,7.6,7.6c0,0,0,0,0,0c44.8,0,81.2,36.4,81.2,81.2
	c0,4.2,3.4,7.6,7.6,7.6s7.6-3.4,7.6-7.6l0,0C296.7,178.4,253.5,135.2,200.3,135.2z"/>
<path class="st0" d="M268.3,417.6c0-10.1-8.2-18.4-18.3-18.4c0,0-0.1,0-0.1,0h-98.8c-10.2,0-18.4,8.3-18.4,18.4
	c0,10.2,8.2,18.4,18.4,18.4h98.4c10.2,0.2,18.6-7.9,18.8-18.1C268.3,417.8,268.3,417.7,268.3,417.6z M249.5,420.8h-98.4
	c-1.8,0-3.2-1.4-3.2-3.2c0-1.8,1.4-3.2,3.2-3.2h98.4c1.7,0,3.2,1.4,3.2,3.1c0,0,0,0.1,0,0.1C253.1,419.6,251.5,420.8,249.5,420.8
	L249.5,420.8z"/>
<path class="st0" d="M235.1,444h-69.2c-10.2,0-18.4,8.3-18.4,18.4c0,10.2,8.2,18.4,18.4,18.4h69.2c10.1,0,18.4-8.2,18.4-18.3
	c0,0,0-0.1,0-0.1C253.4,452.3,245.2,444.1,235.1,444z M235.1,465.6h-69.2c-1.8,0-3.2-1.4-3.2-3.2s1.4-3.2,3.2-3.2c0,0,0,0,0,0h69.2
	c1.7,0,3.2,1.4,3.2,3.1c0,0,0,0.1,0,0.1c0.2,1.6-1,3-2.7,3.2C235.5,465.6,235.3,465.6,235.1,465.6z"/>
<path class="st0" d="M207.9,58.8V7.6c0-4.2-3.4-7.6-7.6-7.6c-4.2,0-7.6,3.4-7.6,7.6v51.6c0,4.2,3.4,7.6,7.6,7.6c0,0,0,0,0,0
	C204.6,66.6,207.9,63.1,207.9,58.8z"/>
<path class="st0" d="M326.3,38c-3.4-2.3-8-1.4-10.4,2l-28.4,42.8c-2.3,3.4-1.4,8,2,10.4c1.2,0.8,2.6,1.2,4,1.2
	c2.5-0.1,4.9-1.2,6.4-3.2l28.4-42.8C330.7,45.2,329.5,40.4,326.3,38z"/>
<path class="st0" d="M109.9,92.8c4.2-0.1,7.6-3.5,7.5-7.7c0-1.4-0.4-2.7-1.1-3.9L88.7,38c-2.1-3.6-6.7-4.8-10.3-2.7
	c-3.6,2.1-4.8,6.7-2.7,10.3c0.1,0.1,0.1,0.2,0.2,0.3l27.6,43.2C104.9,91.4,107.3,92.8,109.9,92.8z"/>
<path class="st0" d="M3.9,128.8l45.2,24.4c1.1,0.6,2.3,0.9,3.6,0.8c2.8-0.1,5.4-1.6,6.8-4c2-3.6,0.7-8.2-2.9-10.2
	c-0.1-0.1-0.2-0.1-0.3-0.2l-45.2-24.4c-3.6-2-8.2-0.7-10.2,2.9c-0.1,0.1-0.1,0.2-0.2,0.3C-0.9,122.4,0.3,126.8,3.9,128.8z"/>
<path class="st0" d="M347.9,154.4c1.2-0.1,2.4-0.3,3.6-0.8l45.2-24.4c3.8-2,5.2-6.6,3.2-10.4c-2-3.8-6.6-5.2-10.4-3.2l0,0L344.3,140
	c-3.7,1.9-5.2,6.5-3.3,10.3C342.4,152.8,345,154.4,347.9,154.4z"/>
</svg>
