<?xml version="1.0" encoding="utf-8"?>
<!-- Generator: Adobe Illustrator 23.0.0, SVG Export Plug-In . SVG Version: 6.00 Build 0)  -->
<svg version="1.1" id="Capa_1" xmlns="http://www.w3.org/2000/svg" xmlns:xlink="http://www.w3.org/1999/xlink" x="0px" y="0px"
	 viewBox="0 0 400.8 480.8" style="enable-background:new 0 0 400.8 480.8;" xml:space="preserve">
<style type="text/css">
	.st0{fill:#9E9E9E;}
</style>
<title>lampada-apagada</title>
<path class="st0" d="M283.1,318.4c25.9-23.4,40.7-56.7,40.8-91.6c0-68-55.6-123.6-123.6-123.6S76.7,158.8,76.7,226.8
	c0.1,35.5,15.4,69.3,42,92.8c19.6,19.6,17.6,61.2,17.6,61.6c0.1,2,0.8,4,2,5.6c1.5,1.5,3.5,2.4,5.6,2.4h113.2c2.1,0,4.1-0.9,5.6-2.4
	c1.4-1.5,2.1-3.5,2-5.6c0-0.4-2-42,17.6-61.6C282.7,319.2,283.1,318.8,283.1,318.4z M271.9,308.4c-0.7,0.5-1.3,1.2-1.6,2
	c-17.6,18.8-20.4,49.6-20.8,64h-98c-0.4-14.8-3.6-46.8-22.4-65.6C84,269.5,79.3,201,118.7,155.9s107.8-49.8,152.9-10.4
	c23.6,20.6,37.1,50.4,37.1,81.7C308.7,258.3,295.3,287.9,271.9,308.4L271.9,308.4z"/>
<path class="st0" d="M200.3,135.2c-4.2,0-7.6,3.4-7.6,7.6c0,4.2,3.4,7.6,7.6,7.6l0,0c44.8,0,81.2,36.4,81.2,81.2
	c0,4.2,3.4,7.6,7.6,7.6s7.6-3.4,7.6-7.6l0,0C296.7,178.4,253.5,135.2,200.3,135.2z"/>
<path class="st0" d="M268.3,417.6c0-10.1-8.2-18.4-18.3-18.4h-0.1h-98.8c-10.2,0-18.4,8.3-18.4,18.4c0,10.2,8.2,18.4,18.4,18.4h98.4
	c10.2,0.2,18.6-7.9,18.8-18.1C268.3,417.8,268.3,417.7,268.3,417.6z M249.5,420.8h-98.4c-1.8,0-3.2-1.4-3.2-3.2
	c0-1.8,1.4-3.2,3.2-3.2h98.4c1.7,0,3.2,1.4,3.2,3.1v0.1C253.1,419.6,251.5,420.8,249.5,420.8L249.5,420.8z"/>
<path class="st0" d="M235.1,444h-69.2c-10.2,0-18.4,8.3-18.4,18.4c0,10.2,8.2,18.4,18.4,18.4h69.2c10.1,0,18.4-8.2,18.4-18.3v-0.1
	C253.4,452.3,245.2,444.1,235.1,444z M235.1,465.6h-69.2c-1.8,0-3.2-1.4-3.2-3.2s1.4-3.2,3.2-3.2l0,0h69.2c1.7,0,3.2,1.4,3.2,3.1
	v0.1c0.2,1.6-1,3-2.7,3.2C235.5,465.6,235.3,465.6,235.1,465.6z"/>
</svg>
